<svg width="383" height="299" viewBox="0 0 383 299" fill="none" xmlns="http://www.w3.org/2000/svg">
<g opacity="0.1">
<mask id="mask0_1_470" style="mask-type:alpha" maskUnits="userSpaceOnUse" x="0" y="0" width="383" height="299">
<rect x="382.5" y="0.5" width="298" height="382" transform="rotate(90 382.5 0.5)" fill="url(#paint0_linear_1_470)" stroke="#6246E5"/>
</mask>
<g mask="url(#mask0_1_470)">
<path d="M141.027 391.92C72.1324 391.92 16.2755 335.638 16.2755 266.202C16.2755 196.767 72.1324 140.484 141.027 140.484C209.922 140.484 265.779 196.767 265.779 266.202C265.779 335.638 209.922 391.92 141.027 391.92Z" stroke="#6246E5"/>
<path d="M154.212 396.902C77.1251 396.902 14.6275 333.928 14.6275 256.237C14.6275 178.547 77.1251 115.573 154.212 115.573C231.298 115.573 293.796 178.547 293.796 256.237C293.796 333.928 231.298 396.902 154.212 396.902Z" stroke="#6246E5"/>
<path d="M164.924 401.885C80.5558 401.885 12.1554 332.962 12.1554 247.934C12.1554 162.906 80.5558 93.9831 164.924 93.9831C249.292 93.9832 317.692 162.906 317.692 247.934C317.692 332.962 249.292 401.885 164.924 401.885Z" stroke="#6246E5"/>
<path d="M180.581 405.206C89.8413 405.206 16.2759 331.079 16.2759 239.63C16.2759 148.181 89.8413 74.0542 180.581 74.0542C271.32 74.0542 344.886 148.182 344.886 239.63C344.886 331.079 271.32 405.206 180.581 405.206Z" stroke="#6246E5"/>
<path d="M195.825 408.528C98.9417 408.528 20.3957 329.381 20.3957 231.742C20.3957 134.102 98.9417 54.9553 195.825 54.9553C292.708 54.9553 371.254 134.102 371.254 231.742C371.254 329.381 292.708 408.528 195.825 408.528Z" stroke="#6246E5"/>
<path d="M213.129 412.68C106.689 412.68 20.3958 325.726 20.3958 218.456C20.3958 111.185 106.689 24.2314 213.129 24.2314C319.57 24.2314 405.863 111.185 405.863 218.456C405.863 325.726 319.57 412.68 213.129 412.68Z" stroke="#6246E5"/>
</g>
</g>
<defs>
<linearGradient id="paint0_linear_1_470" x1="595.063" y1="10.7455" x2="401.135" y2="392.219" gradientUnits="userSpaceOnUse">
<stop stop-color="#747DEF"/>
<stop offset="1" stop-color="#5E3BE1"/>
</linearGradient>
</defs>
</svg>
